ffmpeg version 7.1.1-essentials_build-www.gyan.dev Copyright (c) 2000-2025 the FFmpeg developers
  built with gcc 14.2.0 (Rev1, Built by MSYS2 project)
  configuration: --enable-gpl --enable-version3 --enable-static --disable-w32threads --disable-autodetect --enable-fontconfig --enable-iconv --enable-gnutls --enable-libxml2 --enable-gmp --enable-bzlib --enable-lzma --enable-zlib --enable-libsrt --enable-libssh --enable-libzmq --enable-avisynth --enable-sdl2 --enable-libwebp --enable-libx264 --enable-libx265 --enable-libxvid --enable-libaom --enable-libopenjpeg --enable-libvpx --enable-mediafoundation --enable-libass --enable-libfreetype --enable-libfribidi --enable-libharfbuzz --enable-libvidstab --enable-libvmaf --enable-libzimg --enable-amf --enable-cuda-llvm --enable-cuvid --enable-dxva2 --enable-d3d11va --enable-d3d12va --enable-ffnvcodec --enable-libvpl --enable-nvdec --enable-nvenc --enable-vaapi --enable-libgme --enable-libopenmpt --enable-libopencore-amrwb --enable-libmp3lame --enable-libtheora --enable-libvo-amrwbenc --enable-libgsm --enable-libopencore-amrnb --enable-libopus --enable-libspeex --enable-libvorbis --enable-librubberband
  libavutil      59. 39.100 / 59. 39.100
  libavcodec     61. 19.101 / 61. 19.101
  libavformat    61.  7.100 / 61.  7.100
  libavdevice    61.  3.100 / 61.  3.100
  libavfilter    10.  4.100 / 10.  4.100
  libswscale      8.  3.100 /  8.  3.100
  libswresample   5.  3.100 /  5.  3.100
  libpostproc    58.  3.100 / 58.  3.100
Input #0, dshow, from 'video=AT025':
  Duration: N/A, start: 77811.786967, bitrate: N/A
  Stream #0:0: Video: mjpeg (Baseline) (MJPG / 0x47504A4D), yuvj422p(pc, bt470bg/bt709/unknown), 640x480, 30 fps, 30 tbr, 10000k tbn
Stream mapping:
  Stream #0:0 -> #0:0 (mjpeg (native) -> h264 (libx264))
Press [q] to stop, [?] for help
[swscaler @ 000002446a1c0bc0] deprecated pixel format used, make sure you did set range correctly
[libx264 @ 0000024467c15d80] using cpu capabilities: MMX2 SSE2Fast SSSE3 SSE4.2 AVX
[libx264 @ 0000024467c15d80] profile Constrained Baseline, level 3.0, 4:2:0, 8-bit
[libx264 @ 0000024467c15d80] 264 - core 164 r3204 373697b - H.264/MPEG-4 AVC codec - Copyleft 2003-2025 - http://www.videolan.org/x264.html - options: cabac=0 ref=1 deblock=0:0:0 analyse=0:0 me=dia subme=0 psy=1 psy_rd=1.00:0.00 mixed_ref=0 me_range=16 chroma_me=1 trellis=0 8x8dct=0 cqm=0 deadzone=21,11 fast_pskip=1 chroma_qp_offset=0 threads=6 lookahead_threads=1 sliced_threads=0 nr=0 decimate=1 interlaced=0 bluray_compat=0 constrained_intra=0 bframes=0 weightp=0 keyint=250 keyint_min=25 scenecut=0 intra_refresh=0 rc=crf mbtree=0 crf=23.0 qcomp=0.60 qpmin=0 qpmax=69 qpstep=4 ip_ratio=1.40 aq=0
Output #0, mp4, to 'videos\21-33-44_19.09.2025.mp4':
  Metadata:
    encoder         : Lavf61.7.100
  Stream #0:0: Video: h264 (avc1 / 0x31637661), yuv420p(pc, bt470bg/bt709/unknown, progressive), 640x480, q=2-31, 30 fps, 10000k tbn
      Metadata:
        encoder         : Lavc61.19.101 libx264
      Side data:
        cpb: bitrate max/min/avg: 0/0/0 buffer size: 0 vbv_delay: N/A
frame=    8 fps=0.0 q=23.0 size=       0KiB time=00:00:00.26 bitrate=   1.4kbits/s speed=0.523x    frame=   22 fps= 21 q=23.0 size=       0KiB time=00:00:00.76 bitrate=   0.5kbits/s speed=0.748x    frame=   36 fps= 23 q=23.0 size=       0KiB time=00:00:01.23 bitrate=   0.3kbits/s speed= 0.8x    frame=   50 fps= 24 q=23.0 size=     256KiB time=00:00:01.69 bitrate=1233.8kbits/s speed=0.826x    frame=   64 fps= 25 q=23.0 size=     256KiB time=00:00:02.16 bitrate= 968.1kbits/s speed=0.842x    frame=   78 fps= 25 q=23.0 size=     256KiB time=00:00:02.63 bitrate= 796.5kbits/s speed=0.853x    frame=   92 fps= 26 q=23.0 size=     256KiB time=00:00:03.09 bitrate= 676.6kbits/s speed=0.86x    frame=  106 fps= 26 q=23.0 size=     256KiB time=00:00:03.56 bitrate= 588.1kbits/s speed=0.866x    frame=  120 fps= 26 q=23.0 size=     512KiB time=00:00:04.03 bitrate=1040.0kbits/s speed=0.87x    frame=  134 fps= 26 q=23.0 size=     512KiB time=00:00:04.49 bitrate= 932.2kbits/s speed=0.874x    frame=  148 fps= 26 q=23.0 size=     512KiB time=00:00:04.96 bitrate= 844.6kbits/s speed=0.876x    

[q] command received. Exiting.

[out#0/mp4 @ 0000024467bf8480] video:732KiB audio:0KiB subtitle:0KiB other streams:0KiB global headers:0KiB muxing overhead: 0.204123%
frame=  169 fps= 27 q=-1.0 Lsize=     733KiB time=00:00:05.66 bitrate=1059.7kbits/s speed=0.913x    
[libx264 @ 0000024467c15d80] frame I:1     Avg QP:20.00  size: 20627
[libx264 @ 0000024467c15d80] frame P:168   Avg QP:23.02  size:  4332
[libx264 @ 0000024467c15d80] mb I  I16..4: 100.0%  0.0%  0.0%
[libx264 @ 0000024467c15d80] mb P  I16..4: 14.1%  0.0%  0.0%  P16..4: 57.9%  0.0%  0.0%  0.0%  0.0%    skip:28.0%
[libx264 @ 0000024467c15d80] coded y,uvDC,uvAC intra: 4.9% 72.5% 40.1% inter: 14.9% 48.9% 1.8%
[libx264 @ 0000024467c15d80] i16 v,h,dc,p: 36% 16% 18% 29%
[libx264 @ 0000024467c15d80] i8c dc,h,v,p: 45% 25% 21%  8%
[libx264 @ 0000024467c15d80] kb/s:1056.65
